<svg width="20" height="20" viewBox="0 0 20 20" fill="none" xmlns="http://www.w3.org/2000/svg">
<path d="M14.9373 6.8603C12.6139 5.56081 8.88488 3.47413 3.1008 0.235486C2.71084 -0.0220531 2.26217 -0.0558032 1.87451 0.075408L11.7984 9.99926L14.9373 6.8603Z" fill="#32BBFF"/>
<path d="M1.87356 0.0754395C1.8009 0.100049 1.7302 0.129736 1.66258 0.165596C1.23449 0.397159 0.919922 0.842746 0.919922 1.4063V18.5923C0.919922 19.1558 1.23445 19.6014 1.66258 19.8329C1.73008 19.8688 1.80074 19.8986 1.87332 19.9233L11.7974 9.99929L1.87356 0.0754395Z" fill="#32BBFF"/>
<path d="M11.7981 9.99951L1.87402 19.9236C2.2618 20.0557 2.71047 20.0246 3.10055 19.7633C8.70986 16.6223 12.3969 14.5603 14.7471 13.2498C14.8126 13.213 14.8767 13.1771 14.94 13.1415L11.7981 9.99951Z" fill="#32BBFF"/>
<path d="M0.919922 9.99902V18.592C0.919922 19.1556 1.23445 19.6012 1.66258 19.8327C1.73008 19.8685 1.80074 19.8983 1.87332 19.9231L11.7974 9.99902H0.919922Z" fill="#2C9FD9"/>
<path d="M3.09938 0.235466C2.63629 -0.0703162 2.0902 -0.0616052 1.66211 0.165583L11.6463 10.1498L14.9358 6.86028C12.6125 5.56079 8.88345 3.4741 3.09938 0.235466Z" fill="#29CC5E"/>
<path d="M11.6464 9.84863L1.66211 19.8328C2.09024 20.06 2.63629 20.0731 3.09938 19.7629C8.70869 16.6219 12.3957 14.56 14.746 13.2494C14.8114 13.2127 14.8755 13.1767 14.9389 13.1411L11.6464 9.84863Z" fill="#D93F21"/>
<path d="M19.08 9.99944C19.08 9.52327 18.8397 9.04272 18.3635 8.77623C18.3635 8.77623 17.4729 8.27932 14.7431 6.75244L11.4961 9.99944L14.7463 13.2496C17.4461 11.7337 18.3634 11.2226 18.3634 11.2226C18.8397 10.9562 19.08 10.4756 19.08 9.99944Z" fill="#FFD500"/>
<path d="M18.3635 11.2222C18.8397 10.9557 19.08 10.4752 19.08 9.99902H11.4961L14.7463 13.2492C17.4461 11.7334 18.3635 11.2222 18.3635 11.2222Z" fill="#FFAA00"/>
</svg>
